<mxfile host="app.diagrams.net" modified="2020-08-28T14:53:09.210Z" agent="5.0 (Windows)" etag="ENiPyIli0kUq4qLFPRUL" version="13.6.5" type="github">
  <diagram id="n_GOQLzme3osKWdtHPEB" name="Page-1">
    <mxGraphModel dx="1038" dy="547" grid="1" gridSize="10" guides="1" tooltips="1" connect="1" arrows="1" fold="1" page="1" pageScale="1" pageWidth="1169" pageHeight="827" math="0" shadow="0">
      <root>
        <mxCell id="0" />
        <mxCell id="1" parent="0" />
        <mxCell id="lyB_jpY29cbyGGC9CZNA-1" value="Franking of Letters" style="swimlane;html=1;childLayout=stackLayout;resizeParent=1;resizeParentMax=0;horizontal=1;startSize=20;horizontalStack=0;" vertex="1" parent="1">
          <mxGeometry x="70" y="90" width="890" height="330" as="geometry" />
        </mxCell>
        <mxCell id="lyB_jpY29cbyGGC9CZNA-2" value="User" style="swimlane;html=1;startSize=20;horizontal=0;" vertex="1" parent="lyB_jpY29cbyGGC9CZNA-1">
          <mxGeometry y="20" width="890" height="180" as="geometry" />
        </mxCell>
        <mxCell id="lyB_jpY29cbyGGC9CZNA-5" value="Start" style="rounded=1;whiteSpace=wrap;html=1;" vertex="1" parent="lyB_jpY29cbyGGC9CZNA-2">
          <mxGeometry x="100" y="20" width="80" height="40" as="geometry" />
        </mxCell>
        <mxCell id="lyB_jpY29cbyGGC9CZNA-6" value="List of letters is drawn by the user and forwarded to admin office" style="rounded=0;whiteSpace=wrap;html=1;" vertex="1" parent="lyB_jpY29cbyGGC9CZNA-2">
          <mxGeometry x="80" y="110" width="120" height="60" as="geometry" />
        </mxCell>
        <mxCell id="lyB_jpY29cbyGGC9CZNA-8" value="" style="edgeStyle=orthogonalEdgeStyle;rounded=0;orthogonalLoop=1;jettySize=auto;html=1;entryX=0.5;entryY=0;entryDx=0;entryDy=0;" edge="1" parent="lyB_jpY29cbyGGC9CZNA-2" source="lyB_jpY29cbyGGC9CZNA-5" target="lyB_jpY29cbyGGC9CZNA-6">
          <mxGeometry relative="1" as="geometry">
            <mxPoint x="140" y="160" as="targetPoint" />
          </mxGeometry>
        </mxCell>
        <mxCell id="lyB_jpY29cbyGGC9CZNA-3" value="Admin Officer" style="swimlane;html=1;startSize=20;horizontal=0;" vertex="1" parent="lyB_jpY29cbyGGC9CZNA-1">
          <mxGeometry y="200" width="890" height="130" as="geometry" />
        </mxCell>
        <mxCell id="lyB_jpY29cbyGGC9CZNA-17" value="End" style="rounded=1;whiteSpace=wrap;html=1;" vertex="1" parent="lyB_jpY29cbyGGC9CZNA-3">
          <mxGeometry x="765" y="47" width="75" height="45" as="geometry" />
        </mxCell>
        <mxCell id="lyB_jpY29cbyGGC9CZNA-9" value="&lt;br/&gt;&lt;p style=&quot;margin-bottom: 0in ; line-height: 100%&quot;&gt;Take the list and&lt;br/&gt;the sample parcel to Postal Corporation for costing&lt;/p&gt;&lt;br/&gt;" style="whiteSpace=wrap;html=1;rounded=0;" vertex="1" parent="lyB_jpY29cbyGGC9CZNA-3">
          <mxGeometry x="60" y="40" width="160" height="60" as="geometry" />
        </mxCell>
        <mxCell id="lyB_jpY29cbyGGC9CZNA-10" value="" style="edgeStyle=orthogonalEdgeStyle;rounded=0;orthogonalLoop=1;jettySize=auto;html=1;" edge="1" parent="lyB_jpY29cbyGGC9CZNA-1" source="lyB_jpY29cbyGGC9CZNA-6" target="lyB_jpY29cbyGGC9CZNA-9">
          <mxGeometry relative="1" as="geometry" />
        </mxCell>
        <mxCell id="lyB_jpY29cbyGGC9CZNA-14" value="" style="edgeStyle=orthogonalEdgeStyle;rounded=0;orthogonalLoop=1;jettySize=auto;html=1;" edge="1" parent="1" source="lyB_jpY29cbyGGC9CZNA-11" target="lyB_jpY29cbyGGC9CZNA-13">
          <mxGeometry relative="1" as="geometry" />
        </mxCell>
        <mxCell id="lyB_jpY29cbyGGC9CZNA-11" value="Frank letters and samples as per list and approved cost" style="whiteSpace=wrap;html=1;rounded=0;" vertex="1" parent="1">
          <mxGeometry x="390" y="330" width="120" height="60" as="geometry" />
        </mxCell>
        <mxCell id="lyB_jpY29cbyGGC9CZNA-12" value="" style="edgeStyle=orthogonalEdgeStyle;rounded=0;orthogonalLoop=1;jettySize=auto;html=1;" edge="1" parent="1" source="lyB_jpY29cbyGGC9CZNA-9" target="lyB_jpY29cbyGGC9CZNA-11">
          <mxGeometry relative="1" as="geometry" />
        </mxCell>
        <mxCell id="lyB_jpY29cbyGGC9CZNA-16" value="" style="edgeStyle=orthogonalEdgeStyle;rounded=0;orthogonalLoop=1;jettySize=auto;html=1;" edge="1" parent="1" source="lyB_jpY29cbyGGC9CZNA-13">
          <mxGeometry relative="1" as="geometry">
            <mxPoint x="835" y="360" as="targetPoint" />
          </mxGeometry>
        </mxCell>
        <mxCell id="lyB_jpY29cbyGGC9CZNA-13" value="&lt;br/&gt;&lt;p style=&quot;margin-bottom: 0in ; line-height: 100%&quot;&gt;Dispatch&lt;br/&gt;the franked letters to the Postal Corporation for dispatch&lt;/p&gt;&lt;br/&gt;" style="whiteSpace=wrap;html=1;rounded=0;" vertex="1" parent="1">
          <mxGeometry x="590" y="330" width="150" height="60" as="geometry" />
        </mxCell>
      </root>
    </mxGraphModel>
  </diagram>
</mxfile>
